<svg width="240" height="212" viewBox="0 0 240 212" fill="none" xmlns="http://www.w3.org/2000/svg">
<g clip-path="url(#clip0_2_93)">
<path opacity="0.099" d="M116.454 210.048L4.66709 142.239C1.10709 140.185 -1.94291 136.819 1.52509 134.612L113.709 68.248C115.391 67.178 117.946 66.475 119.66 67.498L236.988 137.402C240.547 139.522 241.186 145.43 237.64 147.572L131.185 209.94C128.962 211.269 126.424 211.98 123.834 211.999C121.244 212.018 118.696 211.344 116.454 210.047V210.048Z" fill="#6862E6"/>
</g>
<g clip-path="url(#clip1_2_93)">
<path d="M114.92 177.69L4.61002 112.51C1.09002 110.51 -1.91998 107.3 1.50002 105.18L112.22 41.39C113.87 40.39 116.4 39.69 118.09 40.67L233.87 107.86C237.39 109.86 238.02 115.58 234.52 117.64L129.46 177.64C127.25 178.911 124.746 179.584 122.197 179.593C119.647 179.602 117.139 178.946 114.92 177.69V177.69Z" fill="#5B36A0"/>
<path d="M114.92 174.68L4.61002 109.5C1.09002 107.5 -1.91998 104.29 1.50002 102.17L112.22 38.38C113.87 37.38 116.4 36.68 118.09 37.66L233.87 104.85C237.39 106.85 238.02 112.57 234.52 114.63L129.46 174.63C127.25 175.901 124.746 176.574 122.197 176.583C119.647 176.592 117.139 175.936 114.92 174.68V174.68Z" fill="#6862E6"/>
<path opacity="0.25" d="M124 88.69L102.25 101.1C102.25 101.1 135.78 121.56 142.64 124.44L155.18 106.44" fill="url(#paint0_linear_2_93)"/>
<path opacity="0.25" d="M116.5 148.26L94.73 135.87L73 148.29C73 148.29 84.34 155.21 95.18 161.56C102 156.69 108.9 151.77 116.5 148.26Z" fill="url(#paint1_linear_2_93)"/>
<path opacity="0.46" d="M69.59 71.73L55.78 79.61C55.78 79.61 56.95 86.83 63.78 89.72L81.89 78.14" fill="url(#paint2_linear_2_93)"/>
<path d="M76.35 79.61C80.9506 79.61 84.68 76.9864 84.68 73.75C84.68 70.5136 80.9506 67.89 76.35 67.89C71.7495 67.89 68.02 70.5136 68.02 73.75C68.02 76.9864 71.7495 79.61 76.35 79.61Z" fill="#68E1FD"/>
<path d="M76.3401 72.84C79.7864 72.84 82.5801 71.6983 82.5801 70.29C82.5801 68.8817 79.7864 67.74 76.3401 67.74C72.8938 67.74 70.1001 68.8817 70.1001 70.29C70.1001 71.6983 72.8938 72.84 76.3401 72.84Z" fill="#974C26"/>
<path d="M76.1201 66C76.1201 64.85 76.1201 63.7 75.9901 62.55L75.9001 61.65L75.8401 61.07C75.8276 60.8678 75.7974 60.667 75.7501 60.47L75.6301 59.77C74.9487 55.8618 73.4307 52.147 71.1801 48.88C70.3325 50.8956 69.9071 53.0636 69.9301 55.25C69.9301 55.9 69.9901 56.54 70.0401 57.15V57.52C70.0401 57.83 70.1501 58.17 70.2101 58.45C70.4669 59.6208 70.801 60.7733 71.2101 61.9C71.5783 62.9348 72.0298 63.9381 72.5601 64.9C73.1301 65.99 73.7401 67.05 74.4101 68.09C74.9201 68.9 75.4101 69.62 75.9001 70.31C76.0478 68.8781 76.1212 67.4395 76.1201 66V66ZM72.8401 53.09C72.87 52.9415 72.87 52.7885 72.8401 52.64C73.0001 52.8 73.1601 52.97 73.3101 53.14C73.1548 53.11 72.9953 53.11 72.8401 53.14V53.09Z" fill="#999A1C"/>
<path d="M78.26 66.92C78.8982 65.953 79.4824 64.9515 80.01 63.92C80.16 63.65 80.29 63.39 80.43 63.12L80.69 62.59L80.94 62.04C81.03 61.82 81.13 61.6 81.22 61.39C82.76 57.733 83.4901 53.7859 83.36 49.82C81.5521 51.0557 80.0199 52.6526 78.86 54.51C78.52 55.05 78.21 55.6 77.92 56.16L77.79 56.4V56.5L77.43 57.37C77.017 58.492 76.6828 59.6415 76.43 60.81C76.179 61.8854 76.0119 62.9787 75.93 64.08C75.82 65.3 75.76 66.52 75.76 67.75C75.76 68.75 75.76 69.58 75.82 70.42C76.62 69.3 77.48 68.13 78.26 66.92V66.92ZM82.5 54.26C82.6032 54.1454 82.6785 54.0085 82.72 53.86C82.72 54.09 82.81 54.3 82.84 54.51C82.7423 54.4072 82.6272 54.3226 82.5 54.26V54.26Z" fill="#999A1C"/>
<path d="M78.2101 69.79C78.8601 69.46 79.5001 69.12 80.1401 68.74L80.6301 68.45L80.9401 68.25L81.2501 68.03L81.6101 67.77C83.6199 66.2928 85.2877 64.3998 86.5001 62.22C85.1273 62.3106 83.7871 62.678 82.5601 63.3C82.2101 63.48 81.8701 63.68 81.5601 63.89L81.4101 63.98L80.9301 64.34C80.3383 64.8067 79.7802 65.3146 79.2601 65.86C78.7821 66.3609 78.341 66.8956 77.9401 67.46C77.4801 68.11 77.0601 68.75 76.6501 69.39C76.2401 70.03 76.0701 70.39 75.8201 70.86C76.5701 70.55 77.4001 70.19 78.2101 69.79ZM84.5901 64.32C84.6814 64.2894 84.7662 64.2419 84.8401 64.18C84.8401 64.32 84.7401 64.45 84.6801 64.58C84.6698 64.4908 84.639 64.4052 84.5901 64.33V64.32Z" fill="#999A1C"/>
<path d="M76.1201 66C76.1201 64.85 76.1201 63.7 75.9901 62.55L75.9001 61.65L75.8401 61.07C75.8276 60.8678 75.7974 60.667 75.7501 60.47L75.6301 59.77C74.9487 55.8618 73.4307 52.147 71.1801 48.88C70.3325 50.8956 69.9071 53.0636 69.9301 55.25C69.9301 55.9 69.9901 56.54 70.0401 57.15V57.52C70.0401 57.83 70.1501 58.17 70.2101 58.45C70.4669 59.6208 70.801 60.7733 71.2101 61.9C71.5783 62.9348 72.0298 63.9381 72.5601 64.9C73.1301 65.99 73.7401 67.05 74.4101 68.09C74.9201 68.9 75.4101 69.62 75.9001 70.31C76.0478 68.8781 76.1212 67.4395 76.1201 66V66ZM72.8401 53.09C72.87 52.9415 72.87 52.7885 72.8401 52.64C73.0001 52.8 73.1601 52.97 73.3101 53.14C73.1548 53.11 72.9953 53.11 72.8401 53.14V53.09Z" fill="#999A1C"/>
<path d="M78.26 66.92C78.8982 65.953 79.4824 64.9515 80.01 63.92C80.16 63.65 80.29 63.39 80.43 63.12L80.69 62.59L80.94 62.04C81.03 61.82 81.13 61.6 81.22 61.39C82.76 57.733 83.4901 53.7859 83.36 49.82C81.5521 51.0557 80.0199 52.6526 78.86 54.51C78.52 55.05 78.21 55.6 77.92 56.16L77.79 56.4V56.5L77.43 57.37C77.017 58.492 76.6828 59.6415 76.43 60.81C76.179 61.8854 76.0119 62.9787 75.93 64.08C75.82 65.3 75.76 66.52 75.76 67.75C75.76 68.75 75.76 69.58 75.82 70.42C76.62 69.3 77.48 68.13 78.26 66.92V66.92ZM82.5 54.26C82.6032 54.1454 82.6785 54.0085 82.72 53.86C82.72 54.09 82.81 54.3 82.84 54.51C82.7423 54.4072 82.6272 54.3226 82.5 54.26V54.26Z" fill="#999A1C"/>
<path d="M78.2101 69.79C78.8601 69.46 79.5001 69.12 80.1401 68.74L80.6301 68.45L80.9401 68.25L81.2501 68.03L81.6101 67.77C83.6199 66.2928 85.2877 64.3998 86.5001 62.22C85.1273 62.3106 83.7871 62.678 82.5601 63.3C82.2101 63.48 81.8701 63.68 81.5601 63.89L81.4101 63.98L80.9301 64.34C80.3383 64.8067 79.7802 65.3146 79.2601 65.86C78.7821 66.3609 78.341 66.8956 77.9401 67.46C77.4801 68.11 77.0601 68.75 76.6501 69.39C76.2401 70.03 76.0701 70.39 75.8201 70.86C76.5701 70.55 77.4001 70.19 78.2101 69.79ZM84.5901 64.32C84.6814 64.2894 84.7662 64.2419 84.8401 64.18C84.8401 64.32 84.7401 64.45 84.6801 64.58C84.6698 64.4908 84.639 64.4052 84.5901 64.33V64.32Z" fill="#999A1C"/>
<path d="M132.66 83.84L120.66 89.63C120.2 89.8389 119.806 90.1707 119.522 90.5888C119.238 91.0069 119.075 91.4952 119.05 92C119.031 92.5031 119.148 93.002 119.389 93.4439C119.63 93.8858 119.986 94.2541 120.42 94.51L149 111.18C149.618 111.541 150.351 111.648 151.046 111.48C151.741 111.313 152.345 110.883 152.73 110.28L159.67 99.49" fill="#A1482D"/>
<path d="M198.19 55.92L102.12 0.580005C101.462 0.201207 100.716 0.0021412 99.9565 0.00277863C99.1971 0.00341605 98.4513 0.203734 97.7938 0.583637C97.1363 0.963539 96.5903 1.50967 96.2106 2.16723C95.8308 2.82479 95.6306 3.57066 95.6301 4.33001V61.91C95.634 62.5374 95.8022 63.1529 96.118 63.6951C96.4338 64.2372 96.8862 64.6872 97.4301 65L199.85 124.1C200.202 124.306 200.602 124.416 201.009 124.418C201.417 124.42 201.818 124.314 202.171 124.111C202.525 123.908 202.818 123.615 203.022 123.262C203.225 122.908 203.332 122.508 203.33 122.1V64.78C203.33 62.9813 202.854 61.2146 201.952 59.6588C201.049 58.103 199.751 56.8132 198.19 55.92V55.92Z" fill="#F47B56"/>
<path d="M102.13 4.93001L195.3 58.52C196.294 59.0937 197.119 59.9187 197.693 60.9122C198.267 61.9056 198.569 63.0326 198.57 64.18V107.34C198.562 107.749 198.447 108.149 198.237 108.5C198.027 108.852 197.73 109.142 197.374 109.344C197.018 109.546 196.616 109.651 196.206 109.651C195.797 109.65 195.395 109.543 195.04 109.34L100 54.9C99.6463 54.6982 99.3514 54.4075 99.1445 54.0567C98.9375 53.7059 98.8257 53.3072 98.8201 52.9V6.83001C98.823 6.44719 98.9257 6.07176 99.1181 5.74081C99.3106 5.40986 99.586 5.13485 99.9173 4.94296C100.249 4.75108 100.624 4.64895 101.007 4.64668C101.39 4.6444 101.767 4.74207 102.1 4.93001H102.13Z" fill="white"/>
<path d="M141.332 86.3399C142.433 86.1279 143.129 84.9361 142.887 83.6779C142.645 82.4197 141.556 81.5716 140.455 81.7836C139.354 81.9956 138.658 83.1874 138.9 84.4456C139.142 85.7038 140.231 86.5519 141.332 86.3399Z" fill="#AB643C"/>
<path opacity="0.32" d="M127.17 63.48L170.47 89.49L191.86 77.06L153.64 54.82" fill="url(#paint3_linear_2_93)"/>
<path d="M180.68 58.31L133.87 29.77C133.619 29.6251 133.335 29.55 133.045 29.5524C132.756 29.5548 132.473 29.6347 132.225 29.7837C131.977 29.9328 131.773 30.1455 131.635 30.3998C131.497 30.6542 131.43 30.9408 131.44 31.23V47.49C131.435 47.7844 131.508 48.0748 131.65 48.3327C131.792 48.5905 131.999 48.8067 132.25 48.96L179.06 76.89C179.305 77.0303 179.583 77.1042 179.865 77.1042C180.147 77.1042 180.425 77.0303 180.67 76.89C180.913 76.7453 181.114 76.5404 181.254 76.2951C181.394 76.0498 181.469 75.7725 181.47 75.49L181.71 60.33C181.73 59.9326 181.646 59.5367 181.465 59.1822C181.284 58.8276 181.014 58.5269 180.68 58.31V58.31Z" fill="#E2AC00"/>
<path d="M169.48 66.67C171.16 69.02 174.11 69.67 176.06 68.15C178.01 66.63 178.25 63.47 176.57 61.15C174.89 58.83 171.94 58.15 169.98 59.68C168.02 61.21 167.8 64.33 169.48 66.67Z" fill="white"/>
<path d="M164.89 55.41L145.79 43.91C145.627 43.8414 145.444 43.8345 145.276 43.8905C145.108 43.9466 144.966 44.0619 144.877 44.2148C144.787 44.3678 144.757 44.548 144.79 44.7219C144.824 44.8958 144.92 45.0515 145.06 45.16L164.15 56.65C164.312 56.7165 164.492 56.7227 164.658 56.6674C164.824 56.6122 164.965 56.4991 165.054 56.3489C165.144 56.1987 165.177 56.0213 165.147 55.8489C165.116 55.6766 165.025 55.5208 164.89 55.41V55.41Z" fill="#F2F2F2"/>
<path d="M164.1 60.08L137.78 44.24C137.619 44.1832 137.444 44.1852 137.285 44.2456C137.125 44.306 136.993 44.421 136.91 44.57C136.827 44.7175 136.798 44.8895 136.829 45.056C136.86 45.2224 136.949 45.3725 137.08 45.48L163.37 61.33C163.533 61.407 163.719 61.4199 163.892 61.3662C164.064 61.3125 164.21 61.1961 164.3 61.04C164.404 60.8802 164.441 60.6861 164.404 60.4993C164.366 60.3124 164.257 60.1476 164.1 60.04V60.08Z" fill="#F2F2F2"/>
<path d="M171.34 61.46L124.55 32.93C124.299 32.7851 124.015 32.71 123.725 32.7124C123.436 32.7148 123.153 32.7947 122.905 32.9437C122.657 33.0928 122.453 33.3055 122.315 33.5598C122.177 33.8142 122.11 34.1008 122.12 34.39V50.64C122.115 50.9344 122.187 51.2248 122.33 51.4827C122.472 51.7405 122.679 51.9568 122.93 52.11L169.74 80C169.987 80.1456 170.269 80.2219 170.557 80.2209C170.844 80.2199 171.125 80.1416 171.372 79.9944C171.618 79.8471 171.821 79.6362 171.957 79.3838C172.094 79.1315 172.161 78.8469 172.15 78.56L172.4 63.41C172.413 63.0132 172.322 62.62 172.136 62.2692C171.95 61.9184 171.675 61.6222 171.34 61.41V61.46Z" fill="#F47B56"/>
<path d="M160.14 69.83C161.82 72.17 164.77 72.83 166.72 71.3C168.67 69.77 168.91 66.62 167.23 64.3C165.55 61.98 162.6 61.3 160.64 62.83C158.68 64.36 158.46 67.48 160.14 69.83Z" fill="white"/>
<path d="M155.54 58.56L136.44 47.07C136.276 46.9818 136.084 46.9606 135.905 47.0107C135.726 47.0609 135.573 47.1785 135.478 47.3389C135.384 47.4993 135.355 47.69 135.399 47.8711C135.442 48.0521 135.553 48.2094 135.71 48.31L154.8 59.81C154.963 59.8847 155.149 59.8963 155.32 59.8428C155.492 59.7893 155.638 59.6744 155.73 59.52C155.783 59.4413 155.819 59.3529 155.838 59.26C155.856 59.167 155.856 59.0714 155.837 58.9785C155.819 58.8856 155.782 58.7973 155.729 58.7186C155.677 58.6399 155.609 58.5724 155.53 58.52L155.54 58.56Z" fill="#F2F2F2"/>
<path d="M154.75 63.26L128.44 47.39C128.277 47.313 128.091 47.3001 127.919 47.3538C127.746 47.4075 127.601 47.5239 127.51 47.68C127.406 47.8398 127.369 48.0339 127.407 48.2207C127.444 48.4076 127.553 48.5724 127.71 48.68L154 64.48C154.163 64.557 154.349 64.5699 154.522 64.5162C154.694 64.4625 154.84 64.3461 154.93 64.19C155.034 64.0302 155.071 63.8361 155.034 63.6493C154.996 63.4624 154.887 63.2976 154.73 63.19L154.75 63.26Z" fill="#F2F2F2"/>
<path d="M159.6 63.37L112.8 34.85C112.55 34.7016 112.265 34.6237 111.974 34.6245C111.683 34.6253 111.398 34.7047 111.149 34.8544C110.9 35.0041 110.696 35.2185 110.559 35.4747C110.422 35.731 110.356 36.0196 110.37 36.31V52.56C110.369 52.8534 110.444 53.1421 110.588 53.398C110.731 53.6538 110.939 53.8681 111.19 54.02L158 82C158.248 82.1447 158.531 82.2203 158.818 82.219C159.105 82.2177 159.387 82.1395 159.634 81.9926C159.881 81.8457 160.084 81.6353 160.222 81.3834C160.36 81.1315 160.429 80.8472 160.42 80.56L160.66 65.41C160.672 65.0145 160.581 64.6226 160.397 64.2722C160.213 63.9219 159.942 63.6249 159.61 63.41L159.6 63.37Z" fill="#68E1FD"/>
<path d="M159.6 63.37L112.8 34.85C112.55 34.7016 112.265 34.6237 111.974 34.6245C111.683 34.6253 111.398 34.7047 111.149 34.8544C110.9 35.0041 110.696 35.2185 110.559 35.4747C110.422 35.731 110.356 36.0196 110.37 36.31V52.56C110.369 52.8534 110.444 53.1421 110.588 53.398C110.731 53.6538 110.939 53.8681 111.19 54.02L158 82C158.248 82.1447 158.531 82.2203 158.818 82.219C159.105 82.2177 159.387 82.1395 159.634 81.9926C159.881 81.8457 160.084 81.6353 160.222 81.3834C160.36 81.1315 160.429 80.8472 160.42 80.56L160.66 65.41C160.672 65.0145 160.581 64.6226 160.397 64.2722C160.213 63.9219 159.942 63.6249 159.61 63.41L159.6 63.37Z" fill="#68E1FD"/>
<path d="M148.39 71.74C150.07 74.09 153.02 74.74 154.98 73.21C156.94 71.68 157.16 68.54 155.48 66.21C153.8 63.88 150.85 63.21 148.89 64.74C146.93 66.27 146.73 69.39 148.39 71.74Z" fill="white"/>
<path d="M143.8 60.47L124.7 49C124.537 48.9314 124.354 48.9245 124.186 48.9805C124.018 49.0366 123.876 49.1519 123.787 49.3048C123.698 49.4578 123.667 49.638 123.701 49.8119C123.734 49.9858 123.83 50.1415 123.97 50.25L143.06 61.74C143.223 61.8194 143.41 61.8336 143.583 61.7797C143.756 61.7258 143.901 61.6078 143.99 61.45C144.043 61.3713 144.079 61.2829 144.098 61.19C144.116 61.097 144.116 61.0014 144.098 60.9085C144.079 60.8156 144.042 60.7273 143.99 60.6486C143.937 60.5699 143.869 60.5024 143.79 60.45L143.8 60.47Z" fill="#F2F2F2"/>
<path d="M143 65.15L116.69 49.31C116.527 49.2414 116.344 49.2344 116.176 49.2905C116.008 49.3466 115.866 49.4619 115.777 49.6148C115.688 49.7678 115.657 49.948 115.691 50.1219C115.724 50.2958 115.82 50.4515 115.96 50.56L142.27 66.4C142.434 66.4761 142.621 66.4885 142.794 66.4348C142.966 66.3811 143.113 66.2652 143.205 66.1095C143.297 65.9539 143.328 65.7695 143.292 65.5922C143.256 65.4149 143.156 65.2573 143.01 65.15H143Z" fill="#F2F2F2"/>
<path d="M98.1801 61.78C95.156 64.3826 92.8695 67.7347 91.5501 71.5C89.2201 77.93 95.0001 88.44 95.0001 88.44L104.06 81.27" fill="#FF8F6F"/>
<path d="M97.2 146.8L94.74 145.45L95.39 141.93C95.39 141.93 99.05 142.28 99.39 143.58" fill="#003B94"/>
<path d="M98.1 146.75C98.66 146.41 99.23 146.11 99.81 145.81C101.23 145.03 103.28 144.22 104.16 142.76C104.338 142.466 104.421 142.124 104.4 141.781C104.378 141.438 104.253 141.11 104.04 140.84C102.75 139.28 99.94 141.84 98.49 140.11C98.21 139.77 98.08 134.37 98.08 134.37L92.6 135.84C92.6 135.84 91.67 146.71 91.77 147.38C91.87 148.05 93.77 148.67 93.77 148.67C94.3315 148.55 94.8668 148.33 95.35 148.02C95.93 147.61 95.35 142.51 96.14 143.22C96.93 143.93 97.19 146.73 97.19 146.73C97.4916 146.771 97.7969 146.777 98.1 146.75V146.75Z" fill="#F47B56"/>
<path d="M107.67 152.06L105.21 150.72L105.85 147.21C105.85 147.21 109.51 147.56 109.85 148.85" fill="#003B94"/>
<path d="M108.59 152C109.15 151.65 109.73 151.35 110.3 151.05C111.72 150.27 113.77 149.47 114.65 148.05C114.827 147.754 114.91 147.411 114.889 147.066C114.868 146.722 114.742 146.392 114.53 146.12C113.24 144.56 110.43 147.12 108.99 145.4C108.7 145.06 108.57 139.65 108.57 139.65L103.09 141.13C103.09 141.13 102.15 152.04 102.26 152.68C102.37 153.32 104.26 153.96 104.26 153.96C104.822 153.847 105.358 153.63 105.84 153.32C106.41 152.9 105.84 147.8 106.62 148.52C107.4 149.24 107.68 152.02 107.68 152.02C107.983 152.053 108.289 152.046 108.59 152V152Z" fill="#F47B56"/>
<path d="M89.81 116.73L88.2 138.31C88.2 138.31 90.77 141.86 99.4 139.89L99.48 125.34" fill="#3E2928"/>
<path d="M99.7699 121C99.5899 122.86 99.7699 143.36 99.7699 143.36C99.7699 143.36 102.16 147.83 112.55 143.36L112.4 125.94" fill="#3E2928"/>
<path d="M89 123.86C89.7 124.35 89.95 121.86 90.69 122.26C93.384 123.823 96.2454 125.077 99.22 126H99.28C99.4275 125.94 99.5925 125.94 99.74 126C99.8139 126.028 99.8813 126.071 99.9381 126.126C99.9948 126.181 100.04 126.247 100.07 126.32C101.905 126.862 103.772 127.29 105.66 127.6C108.09 127.99 110.09 126.2 112.58 126.07C112.58 116.54 112.58 89.42 108.58 83.63L96.58 79.63C96.52 80.63 90.75 87.31 90.89 95.46C90.8694 102.391 90.4554 109.316 89.65 116.2C89.6 116.64 89 123.34 89 123.86V123.86Z" fill="#3E2928"/>
<path d="M109.67 72.66L108.57 83.59C108.57 83.59 99.57 83.95 95.75 81.29V72" fill="#FF8F6F"/>
<path d="M121.07 65.46L120.15 66.71C120.641 65.6965 121.072 64.6546 121.44 63.59C121.7 62.87 120.53 62.59 120.28 63.3L120.14 63.68C120.25 63.29 120.36 62.9 120.46 62.51C120.498 62.3549 120.474 62.1908 120.391 62.0539C120.309 61.917 120.175 61.8185 120.02 61.78C119.865 61.7415 119.701 61.7663 119.564 61.8488C119.427 61.9313 119.328 62.0649 119.29 62.22C119.042 63.2359 118.738 64.2374 118.38 65.22C118.578 64.3499 118.722 63.4681 118.81 62.58C118.89 61.82 117.68 61.85 117.61 62.58C117.511 63.5929 117.33 64.5961 117.07 65.58C117.068 65.2448 117.038 64.9103 116.98 64.58C116.97 64.4938 116.942 64.4107 116.897 64.3365C116.852 64.2622 116.792 64.1986 116.72 64.15C116.72 64.02 116.65 63.89 116.61 63.75C116.561 63.6167 116.468 63.5042 116.346 63.4314C116.224 63.3586 116.081 63.3298 115.94 63.35C115.8 63.3712 115.673 63.4409 115.579 63.547C115.486 63.6531 115.433 63.7888 115.43 63.93L115.35 68.43C115.135 68.8992 114.852 69.334 114.51 69.72C115.09 70.1155 115.647 70.5428 116.18 71C116.66 71.4005 117.118 71.8279 117.55 72.28C117.93 71.8 118.3 71.28 118.66 70.82L118.78 70.69C119.847 69.0967 120.953 67.5367 122.1 66.01C122.57 65.44 121.52 64.85 121.07 65.46V65.46Z" fill="#FFB5A9"/>
<path d="M104 62.69C104 62.69 108.23 63.83 110 66.55C111.073 68.4345 112.019 70.3889 112.83 72.4L115.96 67.54C115.96 67.54 119.76 68.71 121.26 70.54C121.26 70.54 116.76 80.38 112.83 81.22C108.9 82.06 104.74 75.45 104.74 75.45C104.74 75.45 103.88 78.21 104.05 75.26" fill="#FF8F6F"/>
<path d="M106.68 73.21C105.455 72.2052 104.528 70.8841 104 69.39C103.5 67.66 104.13 66.14 104.72 64.53C105.368 62.9374 105.743 61.2471 105.83 59.53C105.827 57.86 105.74 56.1913 105.57 54.53C105.56 54.457 105.56 54.383 105.57 54.31C105.01 52.41 103.85 50.8 101.57 50.61C95.6601 50.11 95.3201 56.61 95.3701 59.32C95.4201 62.03 95.6901 63.78 93.7301 64.89C91.7701 66 90.3501 68.89 92.2301 71.29C94.1101 73.69 92.4201 72.78 91.1701 74.88C89.9201 76.98 90.2501 79.59 92.8101 80.54C95.3701 81.49 107.27 79.71 108.36 78.61C108.75 78.167 108.951 77.5892 108.92 77C108.652 75.5224 107.86 74.1909 106.69 73.25L106.68 73.21Z" fill="#007F68"/>
<path d="M112.49 19.21C113.489 20.6537 114.067 22.3467 114.16 24.1C114.277 24.901 114.084 25.7164 113.62 26.38C113.422 26.5969 113.157 26.742 112.868 26.7926C112.578 26.8433 112.28 26.7966 112.02 26.66C111.696 26.5287 111.403 26.3311 111.16 26.08C110.942 25.8765 110.756 25.6403 110.61 25.38L110.45 25.08C110.409 25.1593 110.359 25.2332 110.3 25.3C110.144 25.4158 109.962 25.4914 109.77 25.52C109.433 25.5897 109.083 25.5512 108.77 25.41C108.06 25.0993 107.468 24.5703 107.08 23.9C106.62 23.1674 106.364 22.3249 106.34 21.46C106.291 21.1139 106.319 20.7613 106.423 20.4275C106.527 20.0937 106.703 19.7872 106.94 19.53C107.144 19.3349 107.402 19.2065 107.681 19.1618C107.96 19.1172 108.245 19.1584 108.5 19.28C108.755 19.3894 108.991 19.5379 109.2 19.72C109.376 19.8677 109.531 20.0394 109.66 20.23L109.78 20.44V19.86L111.07 20.36L111.19 23.98C111.199 24.2411 111.283 24.4943 111.43 24.71C111.552 24.9153 111.733 25.0791 111.95 25.18C112.57 25.42 112.86 24.88 112.82 23.57C112.752 22.2637 112.319 21.0027 111.57 19.93C110.904 18.8366 109.905 17.9851 108.72 17.5C108.292 17.2846 107.809 17.202 107.333 17.2625C106.858 17.3231 106.411 17.5242 106.05 17.84C105.67 18.2339 105.383 18.7077 105.21 19.2268C105.037 19.7458 104.983 20.297 105.05 20.84C105.127 22.2157 105.573 23.5454 106.34 24.69C106.949 25.8286 107.915 26.7352 109.09 27.27C109.496 27.4382 109.931 27.5232 110.37 27.52C110.659 27.5378 110.948 27.4828 111.21 27.36L111.47 27.22L112.24 28.67L112.12 28.76C111.997 28.8281 111.87 28.8882 111.74 28.94C111.532 29.0289 111.314 29.0894 111.09 29.12C110.808 29.1603 110.522 29.1603 110.24 29.12C109.866 29.0729 109.5 28.9788 109.15 28.84C108.159 28.4162 107.28 27.7694 106.58 26.95C105.744 26.0324 105.068 24.9812 104.58 23.84C104.093 22.7479 103.815 21.5744 103.76 20.38C103.689 19.3776 103.893 18.3748 104.35 17.48C104.729 16.7294 105.386 16.1556 106.18 15.88C107.009 15.6019 107.913 15.6484 108.71 16.01C110.27 16.6663 111.588 17.7916 112.48 19.23L112.49 19.21ZM109.66 23.79C109.768 23.6494 109.847 23.4883 109.892 23.3165C109.937 23.1447 109.946 22.9656 109.92 22.79C109.906 22.3714 109.789 21.9627 109.58 21.6C109.402 21.2886 109.129 21.043 108.8 20.9C108.675 20.8315 108.531 20.8043 108.389 20.8223C108.247 20.8402 108.115 20.9024 108.01 21C107.898 21.1248 107.814 21.2729 107.766 21.4337C107.718 21.5945 107.705 21.7639 107.73 21.93C107.742 22.3547 107.866 22.7687 108.09 23.13C108.276 23.4568 108.564 23.7134 108.91 23.86C109.031 23.9224 109.168 23.9454 109.303 23.9256C109.437 23.9059 109.562 23.8445 109.66 23.75" fill="#F47B56"/>
<path d="M188.44 88.85C189.442 90.2922 190.021 91.9861 190.11 93.74C190.226 94.541 190.033 95.356 189.57 96.02C189.371 96.2352 189.105 96.3784 188.816 96.4273C188.527 96.4761 188.229 96.4279 187.97 96.29C187.647 96.1621 187.354 95.968 187.11 95.72C186.894 95.5109 186.708 95.2718 186.56 95.01L186.4 94.71C186.359 94.7893 186.309 94.8632 186.25 94.93C186.095 95.0491 185.913 95.1281 185.72 95.16C185.4 95.2192 185.069 95.1808 184.77 95.05C184.061 94.7374 183.472 94.2043 183.09 93.53C182.621 92.8008 182.362 91.9567 182.34 91.09C182.291 90.7447 182.318 90.3929 182.42 90.0594C182.522 89.7259 182.696 89.4188 182.93 89.16C183.132 88.9624 183.391 88.8323 183.67 88.7875C183.95 88.7427 184.236 88.7855 184.49 88.91C184.75 89.0096 184.988 89.159 185.19 89.35C185.367 89.5002 185.525 89.6715 185.66 89.86L185.78 90.07V89.5L187.06 89.99L187.19 93.61C187.201 93.8663 187.28 94.115 187.42 94.33C187.543 94.5385 187.728 94.703 187.95 94.8C188.6 95.05 188.86 94.51 188.82 93.19C188.759 91.8869 188.329 90.628 187.58 89.56C186.91 88.4732 185.917 87.6235 184.74 87.13C184.311 86.9125 183.827 86.8277 183.35 86.8865C182.872 86.9453 182.423 87.1449 182.06 87.46C181.68 87.8539 181.393 88.3277 181.22 88.8468C181.047 89.3659 180.993 89.917 181.06 90.46C181.133 91.8366 181.579 93.1674 182.35 94.31C182.983 95.419 183.958 96.2927 185.13 96.8C185.535 96.9714 185.97 97.0598 186.41 97.06C186.698 97.0762 186.986 97.0248 187.25 96.91L187.51 96.76L188.28 98.21L188.16 98.3C188.037 98.3681 187.91 98.4283 187.78 98.48C187.572 98.5689 187.354 98.6294 187.13 98.66C186.845 98.7 186.555 98.7 186.27 98.66C185.9 98.6116 185.537 98.5176 185.19 98.38C184.201 97.954 183.322 97.3076 182.62 96.49C181.782 95.5706 181.105 94.5156 180.62 93.37C180.129 92.283 179.85 91.1119 179.8 89.92C179.728 88.9208 179.932 87.921 180.39 87.03C180.771 86.2763 181.426 85.6968 182.22 85.41C183.054 85.1419 183.958 85.1882 184.76 85.54C186.298 86.2391 187.583 87.3948 188.44 88.85V88.85ZM185.6 93.42C185.713 93.282 185.796 93.1214 185.843 92.949C185.889 92.7766 185.899 92.5963 185.87 92.42C185.859 92.001 185.742 91.5916 185.53 91.23C185.36 90.9141 185.089 90.6642 184.76 90.52C184.632 90.4536 184.487 90.4276 184.345 90.4454C184.202 90.4633 184.068 90.5242 183.96 90.62C183.849 90.7461 183.766 90.8941 183.716 91.0543C183.667 91.2144 183.651 91.3833 183.67 91.55C183.692 91.9714 183.819 92.3806 184.04 92.74C184.225 93.0697 184.513 93.3296 184.86 93.48C184.979 93.5416 185.115 93.5641 185.248 93.5444C185.381 93.5247 185.504 93.4637 185.6 93.37" fill="#F47B56"/>
<path opacity="0.25" d="M60.25 116.27L38.48 103.88L16.71 116.29C16.71 116.29 28.82 123.86 39.66 130.21C46.55 125.35 52.66 119.79 60.25 116.27V116.27Z" fill="url(#paint4_linear_2_93)"/>
<path fill-rule="evenodd" clip-rule="evenodd" d="M20.9299 81.47V108.41L41.9099 120.42L65.6099 106.41V79.48" fill="black"/>
<path fill-rule="evenodd" clip-rule="evenodd" d="M20.9299 81.47V108.41L41.9099 120.42L65.6099 106.41V79.48" fill="#FF9271"/>
<path d="M41.9099 93.49V120.42L65.6099 106.41V79.48L41.9099 93.49V93.49Z" fill="#DF5C34"/>
<path d="M20.9299 81.47L45.2799 67.59L65.6099 79.48L41.9099 93.49L20.9299 81.47V81.47Z" fill="#F47B56"/>
<path d="M42.4699 73.78C44.9372 73.6092 47.4016 74.1507 49.5699 75.34C50.8199 76.07 51.4999 76.83 51.5699 77.63C51.598 78.0652 51.4898 78.4984 51.2604 78.8693C51.031 79.2403 50.6918 79.5306 50.2899 79.7C49.8308 79.9807 49.3268 80.1803 48.7999 80.29C48.3641 80.3914 47.9174 80.4384 47.4699 80.43H46.9899C47.0304 80.5403 47.0606 80.6541 47.0799 80.77C47.0593 81.0444 46.9698 81.3092 46.8199 81.54C46.5599 81.9566 46.1987 82.3006 45.7699 82.54C44.7566 83.1386 43.5966 83.4433 42.4199 83.42C41.2213 83.4413 40.0394 83.1371 38.9999 82.54C38.5844 82.356 38.2234 82.0679 37.9519 81.7035C37.6803 81.3391 37.5074 80.9108 37.4499 80.46C37.4556 80.0404 37.5784 79.6308 37.8046 79.2774C38.0308 78.924 38.3513 78.6409 38.7299 78.46C39.0857 78.2524 39.4697 78.0974 39.8699 78C40.1955 77.9045 40.5311 77.8475 40.8699 77.83H41.2199L40.5799 77.44L42.3799 76.32L46.5499 78.78C46.8695 78.9524 47.2269 79.0427 47.5899 79.0427C47.953 79.0427 48.3104 78.9524 48.6299 78.78C49.5099 78.22 49.1899 77.5 47.6799 76.6C46.0678 75.7137 44.2356 75.3077 42.3999 75.43C40.4623 75.4518 38.5661 75.9941 36.9099 77C35.3999 78 34.6499 79.07 34.6599 80.38C34.6699 81.69 35.4599 82.81 37.0199 83.72C38.7231 84.652 40.6508 85.095 42.5899 85C44.5264 85.0328 46.4339 84.5274 48.0999 83.54C48.6749 83.1976 49.1914 82.7655 49.6299 82.26C49.9198 81.9474 50.1382 81.5754 50.2699 81.17L50.3599 80.76L52.7399 80.9V81.11C52.6939 81.3063 52.6371 81.4999 52.5699 81.69C52.4598 81.9886 52.3225 82.2764 52.1599 82.55C51.9125 82.9123 51.6276 83.2474 51.3099 83.55C50.8904 83.956 50.4276 84.3148 49.9299 84.62C48.4995 85.4753 46.9171 86.0458 45.2699 86.3C43.4721 86.6099 41.6371 86.6402 39.8299 86.39C38.1879 86.1982 36.6004 85.6815 35.1599 84.87C33.9996 84.2491 33.0703 83.2707 32.5099 82.08C32.2822 81.5615 32.1646 81.0013 32.1646 80.435C32.1646 79.8687 32.2822 79.3085 32.5099 78.79C33.0587 77.5752 33.9798 76.5666 35.1399 75.91C37.3464 74.5505 39.8786 73.8112 42.4699 73.77V73.78ZM44.7999 80.41C44.7607 80.1898 44.6669 79.9829 44.5271 79.8083C44.3874 79.6336 44.2062 79.4967 43.9999 79.41C43.4933 79.1272 42.92 78.9856 42.3399 79C41.7953 78.9791 41.2564 79.1181 40.7899 79.4C40.601 79.4909 40.4411 79.6326 40.328 79.8092C40.215 79.9858 40.1533 80.1904 40.1499 80.4C40.1781 80.6172 40.262 80.8234 40.3934 80.9987C40.5248 81.1739 40.6993 81.3121 40.8999 81.4C41.4186 81.6913 42.0052 81.8397 42.5999 81.83C43.1724 81.8384 43.7362 81.6897 44.2299 81.4C44.422 81.317 44.5832 81.1759 44.6908 80.9965C44.7984 80.8171 44.8471 80.6085 44.8299 80.4" fill="#3E2928"/>
</g>
<defs>
<linearGradient id="paint0_linear_2_93" x1="137.045" y1="101.329" x2="130.281" y2="110.841" gradientUnits="userSpaceOnUse">
<stop stop-color="#7F3500"/>
<stop offset="1" stop-color="#231F20" stop-opacity="0"/>
</linearGradient>
<linearGradient id="paint1_linear_2_93" x1="108.771" y1="144.053" x2="94.265" y2="160.132" gradientUnits="userSpaceOnUse">
<stop offset="0.03" stop-color="#7F3500"/>
<stop offset="1" stop-color="#231F20" stop-opacity="0"/>
</linearGradient>
<linearGradient id="paint2_linear_2_93" x1="76.7763" y1="75.99" x2="65.7435" y2="87.9383" gradientUnits="userSpaceOnUse">
<stop stop-color="#843C09" stop-opacity="0.85"/>
<stop offset="1" stop-color="#231F20" stop-opacity="0"/>
</linearGradient>
<linearGradient id="paint3_linear_2_93" x1="179.668" y1="75.4464" x2="173.129" y2="70.2176" gradientUnits="userSpaceOnUse">
<stop stop-color="white" stop-opacity="0"/>
<stop offset="0.99" stop-color="#DC841E"/>
</linearGradient>
<linearGradient id="paint4_linear_2_93" x1="4169.99" y1="-357176" x2="3843.52" y2="-356575" gradientUnits="userSpaceOnUse">
<stop offset="0.03" stop-color="#7F3500"/>
<stop offset="1" stop-color="#231F20" stop-opacity="0"/>
</linearGradient>
<clipPath id="clip0_2_93">
<rect width="240" height="104" fill="white" transform="translate(0 108)"/>
</clipPath>
<clipPath id="clip1_2_93">
<rect width="236.85" height="179.57" fill="white"/>
</clipPath>
</defs>
</svg>
